<svg width="10" height="6" viewBox="0 0 10 6" fill="none" xmlns="http://www.w3.org/2000/svg">
<path d="M9.36734 1.14609L5.16733 5.35859C5.11733 5.40859 5.06317 5.44393 5.00483 5.46459C4.9465 5.48559 4.884 5.49609 4.81733 5.49609C4.75067 5.49609 4.68817 5.48559 4.62983 5.46459C4.5715 5.44393 4.51733 5.40859 4.46733 5.35859L0.254834 1.14609C0.138167 1.02943 0.0798338 0.883594 0.0798338 0.708594C0.0798338 0.533594 0.142334 0.383595 0.267334 0.258595C0.392334 0.133594 0.538167 0.0710945 0.704834 0.0710945C0.8715 0.0710945 1.01733 0.133594 1.14233 0.258594L4.81733 3.93359L8.49234 0.258594C8.609 0.141927 8.75267 0.0835939 8.92333 0.0835939C9.09434 0.0835939 9.24234 0.146094 9.36734 0.271094C9.49234 0.396094 9.55484 0.541927 9.55484 0.708594C9.55484 0.87526 9.49234 1.02109 9.36734 1.14609Z" fill="#4B6CFB"/>
</svg>
